<svg width="583" height="574" viewBox="0 0 583 574" fill="none" xmlns="http://www.w3.org/2000/svg">
<path d="M83.2274 486.456L69.2545 476.739C69.2545 476.739 61.1836 488.593 48.8538 480.336C46.4492 478.788 44.5815 476.522 43.5098 473.853C42.4381 471.184 42.2155 468.245 42.8729 465.442C43.3941 463.08 44.4614 460.875 45.9874 459.009C47.5135 457.143 49.4551 455.667 51.6536 454.703C56.7012 452.407 64.3383 452.433 72.6196 460.65L94.2822 428.792L80.467 419.194L67.7823 437.778C67.7823 437.778 44.9629 429.376 30.2671 450.933C16.2153 471.562 31.2661 489.084 39.1135 494.527C45.1075 498.788 66.4678 511.518 83.2274 486.456Z" fill="#EBEBEB"/>
<path d="M84.702 412.575L98.7148 422.312L107.723 409.09L93.7102 399.354L84.702 412.575Z" fill="#EBEBEB"/>
<path d="M142.721 525.469L150.135 523.492C149.914 522.64 149.864 521.752 149.987 520.881C150.109 520.009 150.403 519.171 150.849 518.415C151.296 517.659 151.886 517 152.588 516.477C153.289 515.954 154.086 515.577 154.932 515.368C156.167 514.988 157.489 515.008 158.712 515.425C159.935 515.841 160.999 516.633 161.755 517.691C162.404 518.566 162.839 519.584 163.024 520.661C163.209 521.739 163.139 522.845 162.819 523.89C162.109 526.319 159.849 528.961 154.617 529.399L159.02 546.297L166.355 544.346L163.726 534.443C166.499 532.745 168.644 530.175 169.832 527.127C171.019 524.079 171.183 520.722 170.299 517.571C167.433 506.62 157.036 506.66 152.882 507.775C149.766 508.624 139.132 512.288 142.721 525.469Z" fill="#EBEBEB"/>
<path d="M167.389 547.776L159.941 549.76L161.776 556.781L169.224 554.797L167.389 547.776Z" fill="#EBEBEB"/>
<path d="M265.94 52.4738C269.69 50.1663 273.731 48.3803 277.954 47.1641L280.425 35.2171L300.524 34.8586L303.416 46.8057C307.679 47.8602 311.782 49.4899 315.614 51.6508L325.775 44.9207L340.234 59.0182L333.938 69.505C336.215 73.301 337.983 77.3853 339.196 81.6511L351.092 84.1467L351.433 104.443L339.603 107.364C338.553 111.667 336.94 115.81 334.805 119.682L341.457 129.944L327.497 144.545L317.112 138.187C313.358 140.495 309.312 142.281 305.085 143.497L302.614 155.523L282.515 155.869L279.624 143.922C275.359 142.873 271.255 141.243 267.425 139.076L257.264 145.807L242.805 131.709L249.101 121.222C246.816 117.431 245.048 113.345 243.843 109.076L232.013 106.581L231.658 86.2839L243.489 83.3635C244.514 79.0329 246.114 74.8623 248.247 70.9652L241.583 60.704L255.542 46.1021L265.94 52.4738ZM276.653 79.5139C273.696 82.6158 271.716 86.5335 270.964 90.7716C270.212 95.0097 270.721 99.3779 272.427 103.324C274.133 107.27 276.96 110.616 280.549 112.94C284.138 115.263 288.329 116.46 292.592 116.378C296.855 116.297 300.998 114.94 304.498 112.481C307.997 110.021 310.696 106.569 312.253 102.561C313.809 98.5523 314.154 94.1677 313.243 89.9615C312.332 85.7553 310.207 81.9162 307.136 78.9298C303.015 74.9282 297.49 72.742 291.774 72.8515C286.059 72.961 280.62 75.3573 276.653 79.5139Z" fill="#F5F5F5"/>
<path d="M181.813 10.155C183.979 8.84109 186.309 7.82335 188.74 7.12838L190.16 0.199114L201.741 0L203.41 6.86289C205.863 7.46875 208.224 8.40644 210.429 9.65053L216.279 5.77439L224.56 13.8851L220.932 19.925C222.24 22.1106 223.253 24.4634 223.942 26.9206L230.791 28.3542L230.988 40.049L224.192 41.7614C223.594 44.2398 222.666 46.6245 221.431 48.85L225.27 54.7571L217.225 63.1731L211.244 59.5094C209.08 60.8306 206.75 61.8529 204.317 62.5492L202.845 69.452L191.264 69.6643L189.7 62.8015C187.248 62.185 184.888 61.2432 182.681 60.0005L176.831 63.8767L168.497 55.7527L172.073 49.7261C170.762 47.5463 169.75 45.1976 169.063 42.7437L162.214 41.2968L162.004 29.602L168.813 27.9295C169.41 25.4469 170.339 23.0578 171.573 20.8276L167.735 14.9205L175.78 6.51776L181.813 10.155ZM187.978 25.7392C186.263 27.5211 185.11 29.7775 184.666 32.222C184.223 34.6665 184.508 37.189 185.486 39.4694C186.465 41.7498 188.092 43.6855 190.161 45.0307C192.23 46.376 194.648 47.0702 197.109 47.0254C199.569 46.9806 201.961 46.1988 203.981 44.7791C206.001 43.3593 207.558 41.3657 208.454 39.0512C209.35 36.7366 209.545 34.2054 209.015 31.7786C208.484 29.3519 207.252 27.1389 205.474 25.4206C203.103 23.1156 199.924 21.8546 196.634 21.9144C193.344 21.9741 190.212 23.3497 187.925 25.7392H187.978Z" fill="#EBEBEB"/>
<path d="M582.44 573.151C582.44 573.35 457.788 573.496 304.073 573.496C150.358 573.496 25.6797 573.35 25.6797 573.151C25.6797 572.952 150.292 572.806 304.073 572.806C457.854 572.806 582.44 572.965 582.44 573.151Z" fill="#263238"/>
<path d="M99.5794 501.575C101.35 502.006 103.016 502.794 104.477 503.891C105.939 504.988 107.166 506.372 108.084 507.96C109.901 511.158 110.975 514.73 111.226 518.407C111.896 525.469 109.464 533.262 106.441 539.647C99.6188 535.797 96.4509 527.235 95.1101 522.788C92.9938 515.766 93.3882 501.761 99.5794 501.549" fill="#455A64"/>
<path d="M115.511 549.629C114.696 547.748 114.389 545.683 114.619 543.643C114.85 541.603 115.611 539.661 116.825 538.014C118.074 536.392 119.632 535.039 121.406 534.034C123.18 533.029 125.136 532.391 127.157 532.16C128.064 531.962 129.003 531.962 129.91 532.161C130.817 532.361 131.671 532.754 132.415 533.315C133.019 533.963 133.441 534.763 133.635 535.631C133.829 536.5 133.789 537.405 133.519 538.253C132.961 539.941 131.972 541.452 130.653 542.633C126.329 546.855 121.373 550.133 115.379 549.629" fill="#455A64"/>
<path d="M112.566 572.368C112.489 571.885 112.458 571.396 112.474 570.908C112.474 569.872 112.474 568.532 112.369 566.925C112.101 562.524 112.545 558.107 113.684 553.85C114.906 549.581 117.234 545.718 120.427 542.66C121.405 541.751 122.486 540.962 123.647 540.31C123.957 540.131 124.278 539.972 124.607 539.832C124.716 539.765 124.836 539.72 124.962 539.699C123.431 540.628 121.995 541.709 120.677 542.925C117.591 545.993 115.329 549.802 114.104 553.996C112.973 558.207 112.473 562.565 112.619 566.925C112.619 568.611 112.619 569.965 112.619 570.908C112.637 571.395 112.619 571.883 112.566 572.368Z" fill="#263238"/>
<path d="M100.21 512.274C100.294 512.467 100.36 512.667 100.407 512.872C100.539 513.323 100.697 513.907 100.881 514.624C101.288 516.151 101.853 518.367 102.511 521.115C103.825 526.611 105.586 534.23 107.322 542.673C109.057 551.115 110.45 558.815 111.383 564.39C111.843 567.178 112.198 569.434 112.435 571.027C112.54 571.77 112.619 572.355 112.685 572.832C112.705 573.044 112.705 573.258 112.685 573.47C112.617 573.266 112.564 573.057 112.527 572.846C112.435 572.381 112.33 571.797 112.185 571.054C111.883 569.447 111.475 567.204 110.976 564.483C109.95 558.921 108.505 551.208 106.769 542.806C105.034 534.403 103.352 526.744 102.116 521.235C101.498 518.58 100.999 516.31 100.644 514.704C100.486 513.974 100.355 513.376 100.263 512.925C100.22 512.711 100.203 512.493 100.21 512.274Z" fill="#263238"/>
<path d="M106.441 555.961C104.86 551.938 102.355 548.353 99.1327 545.501C95.9102 542.648 92.0625 540.61 87.9068 539.554C85.7904 539.036 83.1615 538.97 81.8733 540.748C80.5851 542.527 81.4921 545.049 82.6883 546.894C85.2456 550.688 88.855 553.636 93.0641 555.367C97.2731 557.097 101.895 557.535 106.349 556.625" fill="#455A64"/>
<path d="M90.2203 545.833C90.6654 545.889 91.105 545.982 91.5348 546.111C92.0551 546.234 92.5685 546.384 93.0727 546.563C93.6511 546.775 94.3872 546.961 95.0576 547.293C95.728 547.625 96.5824 547.943 97.3842 548.394C98.2645 548.845 99.1162 549.35 99.9343 549.908C101.819 551.171 103.552 552.649 105.1 554.315C106.618 556.003 107.941 557.86 109.044 559.85C109.53 560.71 109.968 561.597 110.358 562.505C110.695 563.303 110.989 564.118 111.239 564.948C111.502 565.691 111.607 566.408 111.765 567.019C111.891 567.544 111.987 568.075 112.054 568.611C112.134 569.049 112.178 569.494 112.185 569.939C112.067 569.939 111.857 568.001 110.871 565.014C110.61 564.206 110.308 563.413 109.964 562.638C109.574 561.729 109.135 560.843 108.649 559.983C107.534 558.038 106.212 556.222 104.706 554.567C103.178 552.938 101.487 551.474 99.6583 550.2C98.7907 549.642 97.9757 549.098 97.1608 548.687C96.4244 548.264 95.6652 547.882 94.8867 547.545C92.0869 546.377 90.1809 545.939 90.2203 545.833Z" fill="#263238"/>
<path d="M131.995 156.851L127.131 141.519C134.049 130.183 136.517 116.644 134.051 103.563C131.585 90.482 124.364 78.8056 113.805 70.8291C103.247 62.8526 90.1164 59.1528 76.9941 60.457C63.8718 61.7613 51.7071 67.9752 42.8914 77.8774C34.0757 87.7796 29.2466 100.654 29.3533 113.969C29.46 127.284 34.4949 140.078 43.4682 149.835C52.4414 159.591 64.7041 165.606 77.8456 166.695C90.9871 167.785 104.057 163.871 114.486 155.723L131.995 156.851Z" fill="#FAFAFA"/>
<path d="M131.995 156.851H130.89L127.552 156.678L114.407 155.948C114.387 155.948 114.367 155.944 114.348 155.936C114.33 155.928 114.313 155.916 114.3 155.901C114.286 155.886 114.276 155.868 114.269 155.849C114.263 155.83 114.26 155.809 114.262 155.789C114.257 155.763 114.257 155.736 114.262 155.709L114.473 155.922C105.339 163.127 94.107 167.088 82.5176 167.192C79.5906 167.176 76.6689 166.941 73.7763 166.488C60.3364 164.364 48.231 157.072 39.9942 146.139C35.4069 139.984 32.1755 132.91 30.5169 125.391C28.7144 117.396 28.7864 109.086 30.7272 101.125C30.9769 100.116 31.2398 99.0939 31.5027 98.085C31.7656 97.0761 32.1994 96.0938 32.5412 95.0982C32.8742 94.0914 33.2604 93.1033 33.6979 92.138C34.1448 91.1823 34.6049 90.2265 35.0124 89.2575C35.4647 88.2888 35.983 87.3529 36.5635 86.4566L38.2328 83.6955L40.152 81.0406L41.1247 79.7131C41.4533 79.2884 41.8345 78.9034 42.1894 78.4919C47.8738 71.8917 55.0849 66.812 63.1816 63.7042C70.8896 60.7382 79.1667 59.5895 87.3812 60.3457C95.1 61.1207 102.555 63.6045 109.215 67.6201C121.05 74.7189 129.683 86.1936 133.283 99.6116C134.043 102.486 134.588 105.415 134.913 108.373C135.123 111.137 135.172 113.912 135.057 116.683C134.554 125.511 131.869 134.073 127.249 141.585V141.466C128.8 146.457 129.983 150.307 130.798 152.935C131.193 154.262 131.482 155.178 131.692 155.855L131.981 156.838C131.981 156.838 131.85 156.479 131.627 155.816L130.667 152.882C129.826 150.227 128.577 146.484 126.973 141.559C126.959 141.52 126.959 141.478 126.973 141.439C131.506 133.944 134.122 125.427 134.584 116.656C134.685 113.911 134.624 111.163 134.4 108.426C134.072 105.494 133.523 102.592 132.757 99.7443C129.938 89.4149 124.09 80.1886 115.982 73.2777C107.874 66.3668 97.8853 62.0947 87.3286 61.0227C79.2176 60.2731 71.0441 61.4036 63.4314 64.3281C55.4577 67.4093 48.3568 72.4239 42.7546 78.93C42.4129 79.3415 42.0317 79.7132 41.7031 80.1379L40.7435 81.4654L38.8507 84.0273L37.2207 86.7619C36.6424 87.6549 36.1242 88.5862 35.6696 89.5495C35.2227 90.492 34.7758 91.4478 34.3551 92.3903C33.9263 93.3424 33.5489 94.3172 33.2247 95.3106C32.8829 96.2929 32.4754 97.262 32.1862 98.2576C31.8971 99.2531 31.6736 100.262 31.4238 101.258C29.5179 109.097 29.4369 117.275 31.1872 125.152C33.4649 135.495 38.7665 144.908 46.4049 152.172C54.0432 159.436 63.666 164.215 74.0261 165.891C76.8923 166.345 79.7873 166.589 82.6885 166.621C85.3966 166.609 88.0996 166.383 90.7725 165.944C99.3851 164.527 107.515 160.974 114.433 155.603C114.447 155.589 114.463 155.577 114.481 155.569C114.499 155.561 114.519 155.557 114.538 155.557C114.558 155.557 114.578 155.561 114.596 155.569C114.614 155.577 114.63 155.589 114.643 155.603C114.663 155.63 114.673 155.663 114.673 155.696C114.673 155.729 114.663 155.762 114.643 155.789L114.538 155.55L127.525 156.453L130.89 156.692L131.995 156.851Z" fill="#263238"/>
<path d="M67.3747 113.63C67.3747 114.698 67.0609 115.743 66.473 116.631C65.8852 117.52 65.0496 118.212 64.0721 118.621C63.0945 119.03 62.0188 119.137 60.981 118.928C59.9432 118.72 58.99 118.205 58.2418 117.45C57.4936 116.694 56.984 115.732 56.7776 114.684C56.5712 113.636 56.6771 112.549 57.082 111.562C57.487 110.575 58.1727 109.731 59.0525 109.137C59.9323 108.544 60.9666 108.227 62.0247 108.227C63.4426 108.23 64.8013 108.801 65.8039 109.813C66.8064 110.826 67.3712 112.198 67.3747 113.63Z" fill="#263238"/>
<path d="M88.8009 113.63C88.8009 114.698 88.4872 115.743 87.8993 116.631C87.3114 117.52 86.4759 118.212 85.4983 118.621C84.5208 119.03 83.4451 119.137 82.4073 118.928C81.3695 118.72 80.4162 118.205 79.668 117.45C78.9198 116.694 78.4103 115.732 78.2039 114.684C77.9974 113.636 78.1034 112.549 78.5083 111.562C78.9132 110.575 79.5989 109.731 80.4787 109.137C81.3585 108.544 82.3929 108.227 83.451 108.227C84.8688 108.23 86.2276 108.801 87.2301 109.813C88.2327 110.826 88.7975 112.198 88.8009 113.63Z" fill="#263238"/>
<path d="M110.174 110.935C110.702 111.86 110.946 112.923 110.876 113.988C110.806 115.054 110.424 116.074 109.78 116.921C109.136 117.768 108.258 118.403 107.257 118.746C106.256 119.089 105.176 119.125 104.155 118.849C103.134 118.573 102.216 117.998 101.518 117.196C100.82 116.394 100.374 115.401 100.234 114.342C100.095 113.284 100.269 112.207 100.735 111.249C101.201 110.29 101.938 109.493 102.853 108.957C103.462 108.6 104.134 108.368 104.832 108.274C105.53 108.181 106.24 108.227 106.92 108.411C107.6 108.595 108.238 108.912 108.796 109.345C109.355 109.778 109.823 110.319 110.174 110.935Z" fill="#263238"/>
<path d="M112.304 352.384L56.938 346.596L33.4877 292.848L15.269 297.64C15.269 297.64 28.7293 354.441 43.7932 363.242C58.8572 372.043 110.319 373.623 110.319 373.623L112.304 352.384Z" fill="#FF725E"/>
<path d="M141.737 379.721C150.746 369.485 149.832 353.812 139.696 344.714C129.56 335.616 114.04 336.539 105.031 346.776C96.0219 357.012 96.9358 372.685 107.072 381.783C117.208 390.88 132.728 389.957 141.737 379.721Z" fill="#263238"/>
<path d="M123.385 388.065C117.695 388.065 112.181 386.073 107.783 382.428C103.384 378.782 100.374 373.71 99.2636 368.074C98.1536 362.438 99.0129 356.589 101.695 351.521C104.377 346.453 108.717 342.482 113.973 340.283C119.23 338.084 125.079 337.794 130.524 339.462C135.969 341.13 140.673 344.653 143.834 349.43C146.995 354.208 148.418 359.945 147.86 365.663C147.303 371.382 144.799 376.728 140.775 380.791C138.497 383.104 135.787 384.938 132.802 386.187C129.816 387.436 126.616 388.074 123.385 388.065ZM123.385 338.472C117.71 338.466 112.209 340.447 107.819 344.078C103.429 347.709 100.421 352.765 99.3078 358.384C98.1949 364.004 99.0457 369.839 101.715 374.896C104.385 379.952 108.709 383.918 113.949 386.117C119.189 388.315 125.022 388.611 130.454 386.953C135.886 385.296 140.581 381.787 143.739 377.026C146.897 372.265 148.322 366.545 147.772 360.841C147.222 355.138 144.731 349.803 140.723 345.746C138.453 343.436 135.751 341.604 132.775 340.355C129.799 339.107 126.608 338.467 123.385 338.472Z" fill="#263238"/>
<path d="M51.9744 367.488C61.8642 365.091 67.9567 355.051 65.5824 345.063C63.208 335.076 53.266 328.923 43.3763 331.321C33.4865 333.719 27.394 343.759 29.7683 353.746C32.1427 363.734 42.0847 369.886 51.9744 367.488Z" fill="#263238"/>
<path d="M33.6912 297.194C39.5689 291.258 39.5689 281.634 33.6912 275.699C27.8135 269.763 18.2839 269.763 12.4062 275.699C6.52849 281.634 6.52848 291.258 12.4062 297.194C18.2839 303.129 27.8135 303.129 33.6912 297.194Z" fill="#263238"/>
<path d="M46.5077 278.22L34.1148 288.789L29.6454 283.444L42.0383 272.876C42.6909 272.319 43.5356 272.047 44.3867 272.12C45.2378 272.192 46.0256 272.603 46.5766 273.262L46.8819 273.627C47.1568 273.953 47.3653 274.331 47.4953 274.738C47.6253 275.146 47.6743 275.575 47.6396 276.002C47.6048 276.429 47.4869 276.845 47.2927 277.225C47.0984 277.606 46.8317 277.944 46.5077 278.22Z" fill="#263238"/>
<path d="M30.7666 258.865V274.794C30.7666 274.918 30.7181 275.036 30.6319 275.123C30.5456 275.21 30.4286 275.259 30.3065 275.259H24.3125C24.1905 275.259 24.0735 275.21 23.9872 275.123C23.9009 275.036 23.8525 274.918 23.8525 274.794V258.865C23.8525 258.002 24.1918 257.175 24.7957 256.565C25.3997 255.955 26.2188 255.613 27.0729 255.613H27.5461C28.4003 255.613 29.2194 255.955 29.8234 256.565C30.4273 257.175 30.7666 258.002 30.7666 258.865Z" fill="#263238"/>
<path d="M19.6049 258.925L23.0485 274.47C23.0752 274.591 23.0534 274.717 22.9881 274.821C22.9227 274.925 22.8191 274.998 22.7 275.025L16.8506 276.347C16.7315 276.374 16.6067 276.352 16.5037 276.286C16.4007 276.22 16.3278 276.115 16.3012 275.995L12.8576 260.45C12.6711 259.608 12.8234 258.726 13.2809 257.997C13.7385 257.269 14.4638 256.754 15.2973 256.566L15.7591 256.461C16.5926 256.273 17.466 256.427 18.1873 256.889C18.9085 257.351 19.4185 258.084 19.6049 258.925Z" fill="#263238"/>
<path d="M7.59803 262.821L15.4849 276.616C15.5459 276.723 15.5624 276.85 15.5308 276.969C15.4993 277.088 15.4222 277.189 15.3165 277.251L10.1255 280.278C10.0199 280.339 9.89428 280.356 9.77642 280.324C9.65856 280.292 9.55806 280.214 9.49705 280.108L1.61018 266.312C1.18312 265.565 1.0674 264.678 1.28846 263.844C1.50952 263.011 2.04928 262.301 2.78897 261.87L3.19879 261.631C3.93848 261.199 4.81752 261.083 5.64254 261.306C6.46755 261.529 7.17097 262.074 7.59803 262.821Z" fill="#263238"/>
<path d="M352.93 491.62L369.502 484.502L321.684 370.958L305.112 378.076L352.93 491.62Z" fill="#FF725E"/>
<path d="M324.059 381.808C332.825 371.359 331.543 355.712 321.196 346.86C310.848 338.008 295.354 339.303 286.589 349.752C277.823 360.201 279.105 375.848 289.452 384.7C299.799 393.552 315.293 392.258 324.059 381.808Z" fill="#263238"/>
<path d="M305.374 390.667C301.522 390.669 297.723 389.758 294.283 388.006C290.843 386.255 287.859 383.712 285.57 380.583C283.281 377.454 281.751 373.826 281.104 369.991C280.457 366.156 280.711 362.221 281.845 358.503C283.189 354.118 285.711 350.195 289.131 347.17C292.551 344.146 296.734 342.138 301.215 341.37C305.697 340.603 310.302 341.105 314.518 342.822C318.734 344.538 322.396 347.402 325.097 351.094C327.798 354.786 329.432 359.163 329.818 363.737C330.204 368.311 329.326 372.903 327.283 377.004C325.239 381.104 322.11 384.552 318.242 386.964C314.374 389.376 309.92 390.658 305.374 390.667ZM305.374 341.047C300.836 341.052 296.388 342.328 292.525 344.733C288.663 347.138 285.536 350.579 283.494 354.672C281.452 358.764 280.575 363.349 280.959 367.915C281.343 372.481 282.975 376.851 285.671 380.537C288.368 384.223 292.024 387.081 296.234 388.793C300.443 390.506 305.04 391.005 309.514 390.236C313.988 389.468 318.163 387.46 321.574 384.438C324.986 381.416 327.5 377.498 328.838 373.118C330.747 366.843 330.113 360.059 327.074 354.255C324.035 348.451 318.841 344.102 312.63 342.162C310.255 341.419 307.782 341.044 305.295 341.047H305.374Z" fill="#263238"/>
<path d="M355.04 439.92C357.763 430.024 352.027 419.772 342.227 417.022C332.428 414.272 322.276 420.065 319.553 429.962C316.83 439.858 322.567 450.109 332.366 452.859C342.166 455.61 352.317 449.816 355.04 439.92Z" fill="#263238"/>
<path d="M365.065 508.027C373.377 508.027 380.116 501.222 380.116 492.827C380.116 484.433 373.377 477.628 365.065 477.628C356.753 477.628 350.014 484.433 350.014 492.827C350.014 501.222 356.753 508.027 365.065 508.027Z" fill="#263238"/>
<path d="M345.38 508.134L353.807 494.169L359.723 497.81L351.295 511.775C350.85 512.511 350.134 513.039 349.304 513.243C348.474 513.446 347.598 513.308 346.869 512.859L346.465 512.611C346.102 512.389 345.786 512.098 345.535 511.753C345.284 511.408 345.102 511.016 345.001 510.6C344.901 510.184 344.882 509.752 344.947 509.329C345.012 508.906 345.159 508.5 345.38 508.134Z" fill="#263238"/>
<path d="M366.363 521.453L361.369 506.344C361.33 506.227 361.339 506.099 361.393 505.989C361.448 505.879 361.544 505.795 361.659 505.756L367.345 503.839C367.461 503.8 367.587 503.809 367.696 503.864C367.805 503.919 367.888 504.016 367.927 504.133L372.922 519.242C373.051 519.649 373.099 520.078 373.064 520.503C373.029 520.929 372.912 521.344 372.718 521.723C372.524 522.103 372.259 522.441 371.936 522.717C371.613 522.993 371.24 523.202 370.837 523.332L370.388 523.483C369.587 523.742 368.718 523.675 367.966 523.296C367.214 522.916 366.639 522.255 366.363 521.453Z" fill="#263238"/>
<path d="M376.943 517.832L368.802 504.188C368.771 504.136 368.75 504.078 368.741 504.017C368.732 503.957 368.735 503.896 368.75 503.836C368.764 503.777 368.79 503.721 368.826 503.672C368.862 503.623 368.907 503.582 368.959 503.55L374.093 500.426C374.145 500.395 374.202 500.374 374.262 500.365C374.322 500.356 374.383 500.359 374.441 500.373C374.5 500.388 374.555 500.414 374.604 500.45C374.652 500.487 374.693 500.532 374.725 500.584L382.865 514.229C383.306 514.967 383.438 515.853 383.232 516.69C383.027 517.527 382.5 518.247 381.769 518.693L381.363 518.939C380.632 519.384 379.755 519.518 378.926 519.31C378.097 519.103 377.384 518.571 376.943 517.832Z" fill="#263238"/>
<path d="M387.105 510.309L375.298 499.746C375.207 499.664 375.151 499.549 375.144 499.426C375.137 499.303 375.178 499.182 375.259 499.09L379.225 494.569C379.306 494.477 379.42 494.421 379.542 494.414C379.663 494.406 379.783 494.448 379.874 494.53L391.681 505.093C392.32 505.665 392.708 506.47 392.76 507.331C392.812 508.192 392.522 509.038 391.956 509.684L391.642 510.042C391.075 510.683 390.278 511.072 389.428 511.122C388.578 511.172 387.742 510.88 387.105 510.309Z" fill="#263238"/>
<path d="M116.089 337.437C116.089 337.437 117.864 511.518 214.596 514.916C311.329 518.314 315.391 338.684 315.391 337.437C315.391 337.437 303.968 311.485 215.74 312.494C127.512 313.503 116.089 337.437 116.089 337.437Z" fill="#FF725E"/>
<path d="M170.404 306.799H252.164C257.5 306.799 261.826 302.431 261.826 297.042V295.622C261.826 290.234 257.5 285.865 252.164 285.865H170.404C165.068 285.865 160.742 290.234 160.742 295.622V297.042C160.742 302.431 165.068 306.799 170.404 306.799Z" fill="#263238"/>
<path d="M207.761 152.006H214.82V115.966H207.761V152.006Z" fill="#263238"/>
<path d="M319.221 259.299C330.367 256.624 337.254 245.331 334.605 234.076C331.956 222.821 320.774 215.865 309.629 218.541C298.483 221.216 291.596 232.508 294.245 243.764C296.894 255.019 308.076 261.974 319.221 259.299Z" fill="#FF725E"/>
<path d="M109.631 257.939C120.802 255.38 127.805 244.159 125.271 232.877C122.737 221.595 111.626 214.523 100.454 217.082C89.2818 219.642 82.2794 230.862 84.8135 242.144C87.3476 253.426 98.4586 260.498 109.631 257.939Z" fill="#FF725E"/>
<path d="M207.183 144.187C207.183 144.187 122.846 143.165 109.517 216.984C96.1881 290.804 167.485 292.131 188.004 293.525C197.298 294.162 217.199 294.228 234.76 293.91C273.643 293.233 301.115 285.64 310.461 249.215C311.574 244.944 312.274 240.573 312.551 236.166C315.009 196.183 288.286 142.223 207.183 144.187Z" fill="#FF725E"/>
<path d="M268.358 256.542L145.836 258.467C142.779 258.521 139.741 257.967 136.897 256.834C134.052 255.702 131.457 254.014 129.259 251.867C127.062 249.72 125.305 247.157 124.089 244.324C122.874 241.491 122.223 238.443 122.175 235.356C122.123 232.268 122.674 229.2 123.797 226.328C124.92 223.455 126.593 220.834 128.719 218.615C130.846 216.396 133.385 214.622 136.191 213.395C138.997 212.167 142.016 211.511 145.073 211.462L267.596 209.537C270.654 209.481 273.692 210.035 276.537 211.167C279.382 212.298 281.978 213.986 284.176 216.133C286.374 218.28 288.131 220.844 289.346 223.678C290.561 226.512 291.21 229.56 291.257 232.648C291.311 235.736 290.761 238.805 289.638 241.678C288.516 244.552 286.844 247.173 284.717 249.393C282.59 251.612 280.05 253.386 277.243 254.613C274.436 255.84 271.417 256.496 268.358 256.542Z" fill="#263238"/>
<path d="M171.297 232.794C171.013 234.257 170.304 235.602 169.263 236.659C168.221 237.715 166.892 238.436 165.445 238.731C163.997 239.025 162.496 238.879 161.131 238.312C159.765 237.744 158.597 236.781 157.774 235.543C156.95 234.305 156.509 232.849 156.505 231.358C156.502 229.867 156.936 228.408 157.753 227.166C158.57 225.924 159.734 224.955 161.096 224.381C162.459 223.806 163.96 223.653 165.409 223.94C166.371 224.131 167.287 224.511 168.104 225.059C168.921 225.607 169.623 226.313 170.17 227.135C170.716 227.957 171.098 228.88 171.291 229.851C171.485 230.822 171.487 231.822 171.297 232.794Z" fill="white"/>
<path d="M256.857 231.414C256.574 232.878 255.868 234.224 254.827 235.283C253.786 236.342 252.458 237.065 251.01 237.361C249.563 237.657 248.06 237.513 246.694 236.947C245.327 236.38 244.158 235.417 243.333 234.18C242.509 232.942 242.066 231.485 242.062 229.993C242.058 228.501 242.492 227.042 243.309 225.799C244.126 224.557 245.29 223.587 246.654 223.013C248.017 222.438 249.518 222.285 250.968 222.573C252.909 222.958 254.619 224.105 255.723 225.763C256.827 227.42 257.235 229.453 256.857 231.414Z" fill="white"/>
<path d="M244.54 406.57C244.06 413.213 241.64 419.563 237.587 424.817C233.533 430.071 228.028 433.993 221.767 436.087C215.506 438.182 208.771 438.354 202.413 436.583C196.055 434.812 190.36 431.177 186.047 426.137C181.735 421.097 179 414.879 178.187 408.27C177.373 401.66 178.519 394.955 181.48 389.003C184.44 383.051 189.081 378.119 194.817 374.831C200.552 371.543 207.125 370.046 213.703 370.53C222.523 371.182 230.727 375.345 236.51 382.103C242.292 388.861 245.181 397.662 244.54 406.57Z" fill="#263238"/>
<path d="M235.51 405.906C235.159 410.748 233.395 415.376 230.439 419.204C227.484 423.033 223.471 425.891 218.907 427.416C214.344 428.942 209.434 429.066 204.801 427.774C200.167 426.482 196.017 423.831 192.875 420.157C189.733 416.483 187.741 411.95 187.15 407.133C186.559 402.315 187.396 397.429 189.555 393.091C191.714 388.754 195.098 385.161 199.279 382.766C203.461 380.371 208.251 379.282 213.046 379.636C216.229 379.87 219.336 380.735 222.188 382.182C225.041 383.629 227.583 385.63 229.669 388.069C231.755 390.509 233.345 393.34 234.347 396.401C235.35 399.461 235.745 402.691 235.51 405.906Z" fill="white"/>
<path d="M223.798 410.366C223.612 409.025 223.538 407.671 223.574 406.318C223.509 403.782 223.456 400.158 223.456 395.698L223.719 396.189L211.218 388.822H211.915L199.296 395.977C198.954 396.561 199.756 395.194 199.677 395.34V397.225V399.123C199.677 400.371 199.677 401.619 199.612 402.84C199.612 405.282 199.52 407.645 199.48 409.928L199.138 409.318L211.494 416.937H210.942C214.794 414.84 217.975 413.167 220.144 412.026C221.311 411.355 222.528 410.778 223.785 410.3C222.804 411.107 221.748 411.814 220.63 412.411C218.501 413.738 215.372 415.61 211.429 417.906L211.153 418.066L210.877 417.906L198.363 410.539L198.021 410.34V409.915C198.021 407.632 198.047 405.269 198.1 402.827C198.1 401.605 198.1 400.371 198.1 399.11V397.225V395.393C198.021 395.539 198.823 394.185 198.481 394.756L211.139 387.667L211.508 387.468L211.849 387.68L224.192 395.3L224.468 395.473V395.791C224.324 400.384 224.179 404.074 224.048 406.583C224.081 407.849 223.998 409.116 223.798 410.366Z" fill="#FF725E"/>
<path d="M219.524 123.542C224.067 118.955 224.067 111.516 219.524 106.928C214.981 102.34 207.615 102.341 203.072 106.928C198.529 111.516 198.529 118.955 203.072 123.542C207.615 128.13 214.981 128.13 219.524 123.542Z" fill="#FF725E"/>
<path d="M192.71 229.316C193.262 229.383 192.986 231.971 194.616 235.515C195.54 237.55 196.884 239.36 198.56 240.825C200.523 242.57 202.968 243.668 205.566 243.971C208.178 244.141 210.78 243.512 213.032 242.166C214.938 241.046 216.587 239.531 217.869 237.719C220.104 234.573 220.301 231.931 220.853 231.971C221.077 231.971 221.3 232.635 221.3 233.883C221.25 235.66 220.801 237.404 219.986 238.98C218.761 241.363 216.95 243.388 214.728 244.861C211.98 246.816 208.633 247.72 205.285 247.411C201.937 247.102 198.808 245.601 196.456 243.175C194.537 241.321 193.124 238.998 192.355 236.431C191.807 234.719 191.663 232.9 191.935 231.122C192.158 229.887 192.5 229.276 192.71 229.316Z" fill="white"/>
<path d="M305.006 263.71C304.875 263.71 306.386 261.321 307.845 257.139C309.66 251.663 310.808 245.984 311.263 240.228C311.789 234.492 311.921 228.726 311.657 222.971C311.565 220.754 311.46 218.989 311.355 217.661C311.266 217.019 311.244 216.37 311.289 215.723C311.458 216.349 311.568 216.989 311.618 217.635C311.802 218.869 311.986 220.661 312.144 222.944C312.556 228.745 312.49 234.571 311.946 240.361C311.484 246.171 310.26 251.893 308.305 257.378C307.687 259.033 306.94 260.635 306.071 262.17C305.76 262.714 305.404 263.229 305.006 263.71Z" fill="#263238"/>
<path d="M109.675 214.515C109.6 215.16 109.464 215.796 109.267 216.413C109.097 217.011 108.912 217.741 108.742 218.617C108.571 219.493 108.308 220.449 108.15 221.551C107.689 224.109 107.382 226.694 107.23 229.29C107.053 232.466 107.097 235.651 107.361 238.821C107.655 241.985 108.165 245.125 108.886 248.219C109.49 250.75 110.245 253.241 111.147 255.679C111.502 256.728 111.91 257.644 112.238 258.467C112.567 259.29 112.882 259.98 113.145 260.538C113.445 261.111 113.691 261.711 113.881 262.33C113.507 261.803 113.182 261.243 112.909 260.657C112.537 259.994 112.199 259.311 111.896 258.613C111.528 257.816 111.081 256.9 110.7 255.852C109.724 253.42 108.916 250.923 108.282 248.378C107.512 245.255 106.976 242.078 106.678 238.874C106.41 235.672 106.384 232.455 106.599 229.25C106.782 226.631 107.142 224.027 107.677 221.458C107.874 220.356 108.15 219.387 108.374 218.524C108.597 217.661 108.807 216.931 109.005 216.334C109.179 215.71 109.403 215.102 109.675 214.515Z" fill="#263238"/>
<path d="M115.643 337.291L116.142 337.437L117.614 337.941L123.214 339.932L127.263 341.393C128.748 341.897 130.391 342.375 132.139 342.919C135.649 343.968 139.606 345.335 144.101 346.397L151.107 348.216C153.552 348.84 156.129 349.304 158.784 349.888C164.042 351.109 169.812 351.946 175.872 352.928C188.977 354.744 202.184 355.697 215.411 355.782C228.639 355.704 241.847 354.75 254.951 352.928C260.971 351.946 266.702 351.123 272.039 349.888C274.668 349.317 277.297 348.853 279.716 348.229L286.735 346.41C291.217 345.348 295.174 343.981 298.684 342.932C300.432 342.388 302.075 341.91 303.56 341.406L307.609 339.946L313.209 337.954L314.681 337.45C314.846 337.384 315.018 337.335 315.194 337.304L314.707 337.516L313.261 338.087L307.701 340.198L303.56 341.764C302.088 342.282 300.445 342.773 298.697 343.344C295.187 344.432 291.244 345.826 286.748 346.928L279.729 348.786C277.297 349.424 274.708 349.901 272.052 350.499C266.794 351.747 261.011 352.596 254.964 353.605C241.833 355.466 228.593 356.437 215.333 356.512C202.077 356.427 188.842 355.452 175.714 353.592C169.681 352.596 163.884 351.733 158.626 350.486C155.997 349.888 153.368 349.41 150.949 348.773L143.93 346.915C139.435 345.813 135.491 344.419 131.982 343.331C130.233 342.76 128.603 342.269 127.118 341.751L123.083 340.224L117.522 338.114L116.076 337.543C115.924 337.473 115.779 337.389 115.643 337.291Z" fill="#263238"/>
<g opacity="0.3">
<path d="M116.089 337.437C116.089 337.437 127.512 313.543 215.74 312.494C303.968 311.445 315.391 337.437 315.391 337.437C315.391 337.437 226.348 381.76 116.089 337.437Z" fill="black"/>
</g>
<path d="M196.496 149.709C196.396 149.719 196.294 149.719 196.194 149.709L195.313 149.802C194.524 149.882 193.368 149.908 191.882 150.081C187.691 150.492 183.532 151.188 179.434 152.165C158.238 157.067 139.542 169.614 126.855 187.449C120.726 196.019 116.085 205.581 113.132 215.723C112.672 217.157 112.422 218.298 112.199 219.055L111.949 219.931C111.925 220.032 111.89 220.13 111.844 220.223C111.826 220.122 111.826 220.019 111.844 219.918C111.844 219.679 111.949 219.387 112.028 219.029C112.212 218.259 112.409 217.104 112.829 215.644C113.927 211.52 115.333 207.486 117.036 203.577C122.654 190.588 131.208 179.109 142.011 170.059C152.86 161.078 165.64 154.786 179.329 151.687C183.451 150.741 187.639 150.116 191.856 149.816C193.354 149.683 194.485 149.696 195.3 149.656H196.194C196.404 149.683 196.496 149.696 196.496 149.709Z" fill="white"/>
<path d="M113.986 251.896C113.46 251.074 113.052 250.18 112.777 249.241C111.218 244.805 110.491 240.114 110.634 235.409C110.597 234.432 110.712 233.456 110.976 232.515C111.186 232.515 110.897 236.949 111.739 242.312C112.58 247.675 114.184 251.816 113.986 251.896Z" fill="white"/>
<path d="M91.8633 245.033C91.8633 245.033 91.561 244.821 91.1535 244.316C90.5726 243.601 90.0743 242.822 89.6682 241.993C88.2644 239.249 87.7273 236.137 88.1292 233.075C88.5311 230.013 89.8527 227.149 91.9159 224.869C92.5202 224.171 93.2041 223.547 93.9534 223.011C94.2107 222.792 94.5044 222.621 94.8209 222.506C94.8998 222.613 93.7168 223.422 92.284 225.161C90.4035 227.435 89.2004 230.202 88.8141 233.139C88.4279 236.076 88.8744 239.063 90.1019 241.754C91.0221 243.865 91.9554 244.953 91.8633 245.033Z" fill="white"/>
<path d="M212.046 107.045C211.02 106.931 209.987 106.909 208.957 106.979C207.731 107.088 206.546 107.478 205.493 108.121C204.44 108.764 203.546 109.642 202.881 110.688C202.216 111.734 201.797 112.92 201.657 114.154C201.516 115.389 201.657 116.64 202.069 117.811C202.424 118.782 202.864 119.72 203.384 120.612C203.384 120.612 203.121 120.453 202.753 120.028C202.248 119.413 201.848 118.718 201.57 117.97C201.068 116.731 200.87 115.387 200.991 114.054C201.113 112.721 201.55 111.436 202.267 110.31C202.984 109.183 203.959 108.248 205.11 107.583C206.261 106.917 207.553 106.542 208.878 106.488C209.665 106.433 210.456 106.509 211.218 106.714C211.809 106.806 212.046 107.006 212.046 107.045Z" fill="white"/>
<path d="M326.616 228.931C326.472 229.091 324.434 227.113 321.358 225.626C318.283 224.139 315.483 223.701 315.509 223.489C317.652 223.435 319.77 223.957 321.648 225.002C323.624 225.837 325.34 227.194 326.616 228.931Z" fill="white"/>
<path d="M146.322 461.327C146.262 461.248 146.21 461.164 146.165 461.075L145.731 460.292C145.337 459.535 144.811 458.526 144.127 457.239C143.786 456.575 143.417 455.831 142.997 455.035L141.761 452.38C140.867 450.455 139.868 448.265 138.882 445.743C138.383 444.508 137.857 443.207 137.305 441.867C136.753 440.526 136.28 439.066 135.741 437.592C134.61 434.659 133.651 431.433 132.534 428.088C130.47 421.318 128.446 413.818 126.671 405.853C124.896 397.888 123.608 390.203 122.557 383.207C121.505 376.211 120.822 369.932 120.401 364.543C120.151 361.888 119.993 359.472 119.862 357.348C119.731 355.224 119.612 353.366 119.573 351.906C119.533 350.446 119.494 349.317 119.455 348.468V347.578C119.44 347.477 119.44 347.374 119.455 347.273C119.47 347.374 119.47 347.477 119.455 347.578L119.533 348.468C119.533 349.304 119.678 350.459 119.77 351.892C119.862 353.326 119.993 355.211 120.177 357.322C120.361 359.432 120.532 361.848 120.822 364.503C121.295 369.813 122.136 376.132 123.122 383.087C124.108 390.043 125.541 397.689 127.276 405.654C129.011 413.619 131.048 421.105 133.059 427.862C134.177 431.207 135.11 434.42 136.214 437.353C136.74 438.84 137.239 440.261 137.739 441.628L139.264 445.531C140.21 448.013 141.183 450.216 142.05 452.168L143.233 454.823C143.615 455.632 143.983 456.376 144.311 457.053L145.784 460.159L146.152 460.969C146.231 461.076 146.289 461.197 146.322 461.327Z" fill="white"/>
<path d="M94.8868 353.101C91.6798 353.223 88.4682 353.108 85.2779 352.756C82.0727 352.642 78.8793 352.301 75.7217 351.733C78.9287 351.611 82.1402 351.726 85.3305 352.079C88.5358 352.191 91.7293 352.532 94.8868 353.101Z" fill="white"/>
<path d="M45.4361 324.759C43.5718 322.017 41.8984 319.147 40.428 316.171C38.7614 313.304 37.2944 310.323 36.0376 307.25C37.8962 309.999 39.5652 312.873 41.0326 315.852C42.7077 318.712 44.1792 321.689 45.4361 324.759Z" fill="white"/>
<path d="M192.986 503.182C192.469 503.172 191.953 503.11 191.448 502.996C190.057 502.746 188.683 502.409 187.334 501.987C185.329 501.371 183.37 500.612 181.471 499.717C179.158 498.591 176.934 497.286 174.82 495.814C172.729 494.306 170.76 492.632 168.931 490.81C167.45 489.311 166.079 487.705 164.83 486.004C163.974 484.869 163.197 483.676 162.503 482.434C162.22 481.997 161.986 481.53 161.807 481.04C161.912 480.973 163.016 482.898 165.211 485.712C166.502 487.348 167.893 488.9 169.378 490.358C173.016 493.928 177.191 496.894 181.747 499.146C183.608 500.054 185.522 500.848 187.478 501.522C190.843 502.664 193.012 503.049 192.986 503.182Z" fill="white"/>
<path d="M213.15 441.774C212.846 441.827 212.539 441.859 212.23 441.867C211.356 441.942 210.478 441.968 209.601 441.947C206.333 441.874 203.09 441.342 199.966 440.367C197.808 439.688 195.707 438.836 193.683 437.818C191.363 436.613 189.162 435.186 187.111 433.557C182.359 429.871 178.614 425.025 176.227 419.475C173.841 413.926 172.89 407.854 173.466 401.831C173.681 399.217 174.143 396.63 174.847 394.105C175.476 391.916 176.29 389.784 177.278 387.734C178.704 384.76 180.536 382.003 182.72 379.543C183.306 378.871 183.929 378.233 184.587 377.632C184.804 377.412 185.037 377.208 185.284 377.021C185.284 377.021 184.416 377.964 182.917 379.676C180.814 382.174 179.046 384.941 177.66 387.906C175.592 392.276 174.361 397 174.032 401.831C173.499 407.747 174.447 413.703 176.79 419.152C179.133 424.601 182.795 429.367 187.439 433.013C189.43 434.631 191.569 436.053 193.828 437.261C195.807 438.315 197.869 439.203 199.993 439.916C203.07 440.923 206.265 441.517 209.496 441.681C211.875 441.774 213.15 441.694 213.15 441.774Z" fill="white"/>
<path d="M54.0066 337.237C54.0066 337.344 52.9945 336.853 51.3777 336.468C49.2142 335.989 46.9715 336.012 44.8179 336.534C42.6644 337.056 40.6557 338.063 38.9427 339.481C37.6282 340.583 36.9973 341.459 36.9053 341.392C37.266 340.514 37.824 339.732 38.5352 339.109C40.2413 337.528 42.3186 336.413 44.5705 335.87C46.8224 335.326 49.1745 335.372 51.404 336.003C52.3541 336.207 53.2447 336.629 54.0066 337.237Z" fill="white"/>
<path d="M248.115 205.25C248.115 205.436 231.973 205.595 212.072 205.595C192.171 205.595 176.016 205.436 176.016 205.25C176.016 205.064 192.158 204.905 212.072 204.905C231.987 204.905 248.115 205.037 248.115 205.25Z" fill="white"/>
<path d="M186.598 288.255C186.401 288.311 186.198 288.342 185.993 288.348L184.232 288.507C183.469 288.573 182.536 288.626 181.445 288.653C180.354 288.68 179.118 288.733 177.751 288.653C175.004 288.653 171.744 288.454 168.129 288.069C164.218 287.609 160.334 286.931 156.496 286.038C152.668 285.111 148.894 283.967 145.192 282.613C142.176 281.498 139.219 280.226 136.332 278.803C135.018 278.219 134.006 277.609 133.046 277.091C132.086 276.573 131.271 276.109 130.614 275.763L129.103 274.834C128.923 274.734 128.756 274.614 128.603 274.476C128.603 274.476 128.813 274.476 129.168 274.715L130.746 275.525C131.416 275.896 132.244 276.334 133.217 276.852C134.19 277.37 135.294 277.901 136.542 278.458C139.014 279.626 142.024 280.874 145.415 282.109C152.786 284.777 160.432 286.594 168.208 287.525C171.784 287.949 175.03 288.188 177.751 288.255C179.066 288.334 180.38 288.255 181.445 288.255C182.51 288.255 183.456 288.255 184.219 288.255H185.98C186.185 288.22 186.393 288.22 186.598 288.255Z" fill="white"/>
<path d="M291.533 348.07C291.436 348.134 291.329 348.184 291.217 348.216L290.271 348.574L286.616 349.901C285.026 350.486 283.08 351.163 280.78 351.84C278.48 352.517 275.89 353.393 272.959 354.136L268.385 355.357C266.794 355.769 265.112 356.114 263.39 356.525C259.946 357.362 256.213 358.025 252.295 358.782C235.234 361.783 217.894 362.856 200.597 361.981C196.654 361.729 192.828 361.53 189.306 361.118C187.544 360.933 185.835 360.8 184.205 360.574L179.513 359.924C176.516 359.565 173.834 359.021 171.481 358.596C169.128 358.171 167.091 357.773 165.448 357.388L161.662 356.539L160.676 356.3C160.562 356.281 160.451 356.245 160.348 356.194C160.466 356.184 160.584 356.184 160.703 356.194L161.688 356.366L165.5 357.096C167.157 357.428 169.181 357.813 171.547 358.171C173.913 358.53 176.581 359.048 179.578 359.379L184.258 359.977C185.888 360.189 187.597 360.309 189.358 360.481C192.868 360.866 196.654 361.039 200.623 361.278C208.576 361.61 217.317 361.623 226.492 361.079C235.667 360.534 244.33 359.379 252.177 358.079C256.121 357.348 259.827 356.751 263.271 355.902C264.993 355.503 266.676 355.171 268.266 354.773L272.841 353.592C275.772 352.888 278.362 352.065 280.662 351.401C282.962 350.738 284.934 350.074 286.524 349.583L290.218 348.388L291.191 348.096L291.533 348.07Z" fill="white"/>
</svg>
